<?xml version="1.0" encoding="UTF-8" standalone="no"?>
<!-- Created with Inkscape (http://www.inkscape.org/) -->

<svg
   xmlns:dc="http://purl.org/dc/elements/1.1/"
   xmlns:cc="http://creativecommons.org/ns#"
   xmlns:rdf="http://www.w3.org/1999/02/22-rdf-syntax-ns#"
   xmlns:svg="http://www.w3.org/2000/svg"
   xmlns="http://www.w3.org/2000/svg"
   xmlns:xlink="http://www.w3.org/1999/xlink"
   xmlns:sodipodi="http://sodipodi.sourceforge.net/DTD/sodipodi-0.dtd"
   xmlns:inkscape="http://www.inkscape.org/namespaces/inkscape"
   width="210mm"
   height="297mm"
   viewBox="0 0 210 297"
   version="1.1"
   id="svg8"
   inkscape:version="0.92.4 (5da689c313, 2019-01-14)"
   sodipodi:docname="PersoEnigme1.svg">
  <defs
     id="defs2">
    <linearGradient
       inkscape:collect="always"
       id="linearGradient4863">
      <stop
         style="stop-color:#000000;stop-opacity:1;"
         offset="0"
         id="stop4859" />
      <stop
         style="stop-color:#000000;stop-opacity:0;"
         offset="1"
         id="stop4861" />
    </linearGradient>
    <linearGradient
       inkscape:collect="always"
       id="linearGradient4806">
      <stop
         style="stop-color:#800080;stop-opacity:1;"
         offset="0"
         id="stop4802" />
      <stop
         style="stop-color:#800080;stop-opacity:0;"
         offset="1"
         id="stop4804" />
    </linearGradient>
    <linearGradient
       inkscape:collect="always"
       id="linearGradient4798">
      <stop
         style="stop-color:#000000;stop-opacity:1;"
         offset="0"
         id="stop4794" />
      <stop
         style="stop-color:#000000;stop-opacity:0;"
         offset="1"
         id="stop4796" />
    </linearGradient>
    <radialGradient
       inkscape:collect="always"
       xlink:href="#linearGradient4798"
       id="radialGradient4800"
       cx="404.28516"
       cy="516.80566"
       fx="404.28516"
       fy="516.80566"
       r="213.80231"
       gradientTransform="matrix(1,0,0,1.2338563,0,-120.85827)"
       gradientUnits="userSpaceOnUse" />
    <linearGradient
       inkscape:collect="always"
       xlink:href="#linearGradient4806"
       id="linearGradient4808"
       x1="404.28516"
       y1="516.80566"
       x2="618.08746"
       y2="516.80566"
       gradientUnits="userSpaceOnUse" />
    <linearGradient
       inkscape:collect="always"
       xlink:href="#linearGradient4806"
       id="linearGradient4819"
       gradientUnits="userSpaceOnUse"
       x1="404.28516"
       y1="516.80566"
       x2="618.08746"
       y2="516.80566"
       gradientTransform="matrix(0.26458333,0,0,0.2893465,-0.1473938,-23.023267)" />
    <filter
       inkscape:collect="always"
       style="color-interpolation-filters:sRGB"
       id="filter4830"
       x="-0.019096774"
       width="1.0381935"
       y="-0.032290908"
       height="1.0645818">
      <feGaussianBlur
         inkscape:collect="always"
         stdDeviation="0.76781044"
         id="feGaussianBlur4832" />
    </filter>
    <radialGradient
       inkscape:collect="always"
       xlink:href="#linearGradient4863"
       id="radialGradient4865"
       cx="-76.521652"
       cy="131.76512"
       fx="-76.521652"
       fy="131.76512"
       r="20.223448"
       gradientTransform="matrix(3.7944853,-0.0183936,0.01697744,4.0494078,394.73477,-418.08795)"
       gradientUnits="userSpaceOnUse" />
    <filter
       inkscape:collect="always"
       style="color-interpolation-filters:sRGB"
       id="filter4920"
       x="-0.029740536"
       width="1.0594811"
       y="-0.12433906"
       height="1.2486781">
      <feGaussianBlur
         inkscape:collect="always"
         stdDeviation="0.84168578"
         id="feGaussianBlur4922" />
    </filter>
    <filter
       inkscape:collect="always"
       style="color-interpolation-filters:sRGB"
       id="filter4920-2"
       x="-0.029740537"
       width="1.0594811"
       y="-0.12433906"
       height="1.2486781">
      <feGaussianBlur
         inkscape:collect="always"
         stdDeviation="0.84168578"
         id="feGaussianBlur4922-3" />
    </filter>
    <filter
       inkscape:collect="always"
       style="color-interpolation-filters:sRGB"
       id="filter4979"
       x="-0.027115229"
       width="1.0542305"
       y="-0.20889813"
       height="1.4177963">
      <feGaussianBlur
         inkscape:collect="always"
         stdDeviation="0.76874686"
         id="feGaussianBlur4981" />
    </filter>
    <filter
       inkscape:collect="always"
       style="color-interpolation-filters:sRGB"
       id="filter5037"
       x="-0.013257485"
       width="1.026515"
       y="-0.12651429"
       height="1.2530286">
      <feGaussianBlur
         inkscape:collect="always"
         stdDeviation="0.35066385"
         id="feGaussianBlur5039" />
    </filter>
    <filter
       inkscape:collect="always"
       style="color-interpolation-filters:sRGB"
       id="filter5053"
       x="-0.02389777"
       width="1.0477955"
       y="-0.024103109"
       height="1.0482062">
      <feGaussianBlur
         inkscape:collect="always"
         stdDeviation="0.39758577"
         id="feGaussianBlur5055" />
    </filter>
    <filter
       inkscape:collect="always"
       style="color-interpolation-filters:sRGB"
       id="filter5061"
       x="-0.0088069749"
       width="1.0176139"
       y="-0.018825195"
       height="1.0376504">
      <feGaussianBlur
         inkscape:collect="always"
         stdDeviation="0.31303652"
         id="feGaussianBlur5063" />
    </filter>
  </defs>
  <sodipodi:namedview
     id="base"
     pagecolor="#ffffff"
     bordercolor="#666666"
     borderopacity="1.0"
     inkscape:pageopacity="0.0"
     inkscape:pageshadow="2"
     inkscape:zoom="0.35455254"
     inkscape:cx="719.07112"
     inkscape:cy="627.73888"
     inkscape:document-units="mm"
     inkscape:current-layer="layer1"
     showgrid="false"
     inkscape:window-width="1366"
     inkscape:window-height="705"
     inkscape:window-x="-8"
     inkscape:window-y="-8"
     inkscape:window-maximized="1"
     showguides="true"
     inkscape:guide-bbox="true" />
  <metadata
     id="metadata5">
    <rdf:RDF>
      <cc:Work
         rdf:about="">
        <dc:format>image/svg+xml</dc:format>
        <dc:type
           rdf:resource="http://purl.org/dc/dcmitype/StillImage" />
        <dc:title />
      </cc:Work>
    </rdf:RDF>
  </metadata>
  <g
     inkscape:label="Calque 1"
     inkscape:groupmode="layer"
     id="layer1">
    <path
       style="opacity:1;fill:url(#linearGradient4819);fill-opacity:1;stroke:#000000;stroke-width:0.52287501;stroke-miterlimit:4;stroke-dasharray:none;stroke-opacity:1"
       d="m 106.81972,50.456054 a 56.318451,76.056804 0 0 0 -56.318528,76.056316 56.318451,76.056804 0 0 0 20.756875,58.92044 c 0.127852,0.27665 0.14773,0.32548 0.307475,0.66798 3.838956,8.23115 4.065127,16.50301 0.67696,24.73518 -3.350162,8.13981 -10.794518,16.51879 -20.379634,22.93806 l -1.654162,1.10821 56.775344,-0.008 c 35.61729,-0.004 56.71098,-0.0515 56.60326,-0.12603 -0.0944,-0.0653 -1.038,-0.71242 -2.09703,-1.43825 -9.33476,-6.39779 -16.59312,-14.69483 -19.77088,-22.59955 -1.60111,-3.98278 -2.29371,-7.44594 -2.29289,-11.4631 0.001,-4.60542 0.97033,-8.78853 3.07889,-13.28563 0.27474,-0.58595 0.48492,-1.06903 0.5302,-1.21051 a 56.318451,76.056804 0 0 0 20.10265,-58.23891 56.318451,76.056804 0 0 0 -56.31853,-76.056315 z"
       id="path815"
       inkscape:connector-curvature="0" />
    <ellipse
       style="opacity:1;fill:#630063;fill-opacity:1;stroke:none;stroke-width:0.5;stroke-linejoin:miter;stroke-miterlimit:4;stroke-dasharray:none;stroke-opacity:1;filter:url(#filter4830)"
       id="path4824"
       ry="28.533497"
       rx="48.247547"
       cy="119.57352"
       cx="107.38971"
       transform="matrix(0.92772173,0,0,0.99999142,7.7619424,-17.891494)" />
    <path
       style="opacity:1;fill:#ffffff;fill-opacity:1;stroke:#000000;stroke-width:0.53371626;stroke-linejoin:miter;stroke-miterlimit:4;stroke-dasharray:none;stroke-opacity:1;filter:url(#filter5061)"
       d="M 107.64918,97.035504 A 43.309633,23.945423 0 0 0 64.866256,117.4533 43.309633,23.945423 0 0 0 107.38983,136.94413 43.309633,23.945423 0 0 0 150.17224,116.52574 43.309633,23.945423 0 0 0 107.64918,97.035504 Z"
       id="path4836"
       inkscape:connector-curvature="0"
       transform="matrix(1,0,0,1.0935931,0,-26.247044)" />
    <ellipse
       style="opacity:1;fill:url(#radialGradient4865);fill-opacity:1;stroke:#000000;stroke-width:0.5182389;stroke-linejoin:miter;stroke-miterlimit:4;stroke-dasharray:none;stroke-opacity:1;filter:url(#filter5053)"
       id="path4857"
       cx="106.61152"
       cy="116.89026"
       rx="19.964329"
       ry="19.794249"
       transform="matrix(1,0,0,1.0935931,0,-26.247044)" />
    <ellipse
       style="opacity:1;fill:#ffffff;fill-opacity:1;stroke:#000000;stroke-width:1.04575002;stroke-linejoin:miter;stroke-miterlimit:4;stroke-dasharray:none;stroke-opacity:1"
       id="path4867"
       cx="106.87091"
       cy="101.11366"
       rx="4.1503267"
       ry="4.5387688" />
    <path
       style="opacity:1;fill:#600060;fill-opacity:1;stroke:none;stroke-width:0.65749931;stroke-linejoin:miter;stroke-miterlimit:4;stroke-dasharray:none;stroke-opacity:1;filter:url(#filter4920)"
       d="m 73.068472,168.33721 c 2.475932,9.323 17.940909,22.9437 35.044498,22.95269 16.50287,-0.004 29.72966,-13.15446 32.87781,-22.07882 -7.70392,4.96248 -20.09679,7.90768 -33.30283,7.9145 -14.02695,-0.001 -27.081938,-3.31533 -34.619478,-8.78837 z"
       id="path4888"
       inkscape:connector-curvature="0"
       sodipodi:nodetypes="ccccc"
       transform="matrix(1,0,0,1.0935931,0,-26.247044)" />
    <path
       style="opacity:1;fill:#000000;fill-opacity:1;stroke:none;stroke-width:0.65749931;stroke-linejoin:miter;stroke-miterlimit:4;stroke-dasharray:none;stroke-opacity:1;filter:url(#filter4920-2)"
       d="m -48.514228,166.68777 c 2.475932,9.32299 19.603731,15.47294 36.70732,15.48193 16.5028733,-0.004 30.687721,-6.44804 33.83587,-15.3724 -7.703919,4.96248 -20.0967923,7.90768 -33.30283,7.9145 -14.02695,-0.001 -29.70282,-2.55099 -37.24036,-8.02403 z"
       id="path4888-6"
       inkscape:connector-curvature="0"
       transform="matrix(1.0966458,0,0,-1.370769,121.03757,304.79952)"
       sodipodi:nodetypes="ccccc" />
    <path
       style="opacity:1;fill:#9a009a;fill-opacity:1;stroke:none;stroke-width:0.44685027;stroke-linejoin:miter;stroke-miterlimit:4;stroke-dasharray:none;stroke-opacity:1;filter:url(#filter4979)"
       d="m 73.272946,169.04623 c -0.12333,0 -0.23512,0.0546 -0.32483,0.14263 a 34.224072,9.6717748 0 0 0 34.010594,8.68939 34.224072,9.6717748 0 0 0 34.03207,-8.66717 c -0.0928,-0.10141 -0.21289,-0.16485 -0.34629,-0.16485 z"
       id="rect4945"
       inkscape:connector-curvature="0"
       transform="matrix(1,0,0,1.0935931,0,-26.247044)" />
    <path
       style="fill:none;stroke:#000000;stroke-width:0.47812574;stroke-linecap:butt;stroke-linejoin:miter;stroke-miterlimit:4;stroke-dasharray:none;stroke-opacity:1;filter:url(#filter5037)"
       d="m 75.686489,171.78763 c 15.492182,9.23298 50.750731,8.46856 63.480611,0.0935"
       id="path4999"
       inkscape:connector-curvature="0"
       sodipodi:nodetypes="cc"
       transform="matrix(1,0,0,1.0935931,0,-26.247044)" />
    <path
       style="color:#000000;fill:#600060;fill-opacity:1;stroke:#000000;stroke-width:0.52287501;stroke-miterlimit:4;stroke-dasharray:none;stroke-opacity:1"
       d="m 38.085855,104.95994 c 0.12318,10e-4 0.25433,0.0156 0.39262,0.0468 4.38927,1.03084 6.23749,10.94162 9.00206,17.03546 0.0869,0.37217 0.18634,0.76222 0.32386,1.20842 0.90463,2.93707 1.95833,6.08724 2.44895,9.21249 0.49065,3.12532 0.8386,6.56495 -2.30785,9.94814 -3.19593,3.43622 -7.53975,4.08157 -11.4473,4.55625 -3.90753,0.47494 -7.99882,0.53022 -11.77245,0.64001 -0.83749,0.0234 -1.468,0.0795 -2.08211,0.1378 -5.32758,-0.0826 -17.9150096,6.23408 -19.0285096,3.04718 -1.6606101,-4.75279 17.3954896,-12.56393 17.4997396,-17.38266 0.0784,-3.61643 -18.8146097,-11.2053 -15.5844996,-13.70707 4.30388,-3.33336 22.5540296,3.69844 27.9507796,1.4845 3.92374,-1.60968 0.78118,-16.2607 4.6047,-16.22988 z"
       id="path10904-4-0"
       inkscape:connector-curvature="0"
       inkscape:transform-center-x="-59.648325"
       inkscape:transform-center-y="-9.0579431" />
    <path
       style="color:#000000;fill:#600060;fill-opacity:1;stroke:#000000;stroke-width:0.52287501;stroke-miterlimit:4;stroke-dasharray:none;stroke-opacity:1"
       d="m 175.25033,104.48085 c -0.12318,10e-4 -0.25433,0.0156 -0.39262,0.0468 -4.38927,1.03084 -6.23749,10.94161 -9.00206,17.03545 -0.0869,0.37218 -0.18634,0.76223 -0.32386,1.20842 -0.90463,2.93708 -1.95833,6.08725 -2.44895,9.2125 -0.49065,3.12531 -0.8386,6.56495 2.30785,9.94814 3.19593,3.43621 7.53975,4.08157 11.4473,4.55625 3.90753,0.47494 7.99882,0.53022 11.77245,0.64 0.83749,0.0234 1.468,0.0795 2.08211,0.13781 5.32758,-0.0826 17.91501,6.23408 19.02851,3.04717 1.66061,-4.75278 -17.39549,-12.56393 -17.49974,-17.38265 -0.0784,-3.61643 18.81461,-11.2053 15.5845,-13.70707 -4.30388,-3.33336 -22.55403,3.69844 -27.95078,1.4845 -3.92374,-1.60969 -0.78118,-16.26071 -4.6047,-16.22988 z"
       id="path10904-4-0-3"
       inkscape:connector-curvature="0"
       inkscape:transform-center-x="59.648328"
       inkscape:transform-center-y="-9.0579434" />
    <path
       style="opacity:0.8;fill:#ffd5d5;fill-opacity:1;stroke:#000000;stroke-width:0.38879484;stroke-miterlimit:4;stroke-dasharray:none;stroke-opacity:0.99481865"
       d="m 138.81204,199.61246 a 25.718794,24.092584 0 0 0 -22.23209,12.02203 32.980573,34.973105 0 0 0 -21.944858,-8.91638 32.980573,34.973105 0 0 0 -25.97292,13.48837 19.667314,26.035536 0 0 0 -8.520569,-2.60477 19.667314,26.035536 0 0 0 -14.466835,8.44729 18.154443,18.652326 0 0 0 -7.017069,-1.45267 18.154443,18.652326 0 0 0 -18.154424,18.65235 18.154443,18.652326 0 0 0 18.154424,18.65227 18.154443,18.652326 0 0 0 6.60936,-1.2842 19.667314,26.035536 0 0 0 14.874544,9.05296 19.667314,26.035536 0 0 0 10.492023,-4.02556 32.980573,34.973105 0 0 0 24.001466,11.02018 32.980573,34.973105 0 0 0 15.491538,-4.12565 27.53424,25.646945 0 0 0 23.23908,11.899 27.53424,25.646945 0 0 0 20.83865,-8.9072 26.323944,28.367077 0 0 0 9.41758,1.91258 26.323944,28.367077 0 0 0 26.32394,-28.36551 26.323944,28.367077 0 0 0 -26.32394,-28.37019 26.323944,28.367077 0 0 0 -0.21958,0.009 25.718794,24.092584 0 0 0 -24.59005,-17.10397 z"
       id="path13215"
       inkscape:connector-curvature="0" />
  </g>
</svg>
